<svg xmlns="http://www.w3.org/2000/svg" xmlns:xlink="http://www.w3.org/1999/xlink" width="500" zoomAndPan="magnify" viewBox="0 0 375 374.999991" height="500" preserveAspectRatio="xMidYMid meet" version="1.0"><defs><g/><clipPath id="a26926a029"><path d="M 37.0625 131 L 337.644531 131 L 337.644531 243.75 L 37.0625 243.75 Z M 37.0625 131 " clip-rule="nonzero"/></clipPath><clipPath id="965b0ba7b6"><path d="M 41.25 131.25 L 333.75 131.25 C 334.746094 131.25 335.699219 131.644531 336.402344 132.347656 C 337.105469 133.050781 337.5 134.003906 337.5 135 L 337.5 240 C 337.5 240.996094 337.105469 241.949219 336.402344 242.652344 C 335.699219 243.355469 334.746094 243.75 333.75 243.75 L 41.25 243.75 C 40.253906 243.75 39.300781 243.355469 38.597656 242.652344 C 37.894531 241.949219 37.5 240.996094 37.5 240 L 37.5 135 C 37.5 134.003906 37.894531 133.050781 38.597656 132.347656 C 39.300781 131.644531 40.253906 131.25 41.25 131.25 Z M 41.25 131.25 " clip-rule="nonzero"/></clipPath><clipPath id="91cdaab315"><path d="M 37.5 131.25 L 337.5 131.25 L 337.5 243.75 L 37.5 243.75 Z M 37.5 131.25 " clip-rule="nonzero"/></clipPath><clipPath id="6f2cb24f5d"><path d="M 41.25 131.25 L 333.75 131.25 C 334.746094 131.25 335.699219 131.644531 336.402344 132.347656 C 337.105469 133.050781 337.5 134.003906 337.5 135 L 337.5 240 C 337.5 240.996094 337.105469 241.949219 336.402344 242.652344 C 335.699219 243.355469 334.746094 243.75 333.75 243.75 L 41.25 243.75 C 40.253906 243.75 39.300781 243.355469 38.597656 242.652344 C 37.894531 241.949219 37.5 240.996094 37.5 240 L 37.5 135 C 37.5 134.003906 37.894531 133.050781 38.597656 132.347656 C 39.300781 131.644531 40.253906 131.25 41.25 131.25 Z M 41.25 131.25 " clip-rule="nonzero"/></clipPath><clipPath id="8082be2915"><path d="M 46 149.222656 L 116 149.222656 L 116 225.722656 L 46 225.722656 Z M 46 149.222656 " clip-rule="nonzero"/></clipPath><clipPath id="223b8da358"><path d="M 59.171875 174 L 102.671875 174 L 102.671875 194 L 59.171875 194 Z M 59.171875 174 " clip-rule="nonzero"/></clipPath><clipPath id="e601c6f3ac"><path d="M 72 202 L 76 202 L 76 207.421875 L 72 207.421875 Z M 72 202 " clip-rule="nonzero"/></clipPath><clipPath id="f51dbfc3b0"><path d="M 85 202 L 89 202 L 89 207.421875 L 85 207.421875 Z M 85 202 " clip-rule="nonzero"/></clipPath><clipPath id="136c87fd0c"><path d="M 71 163.921875 L 80 163.921875 L 80 172 L 71 172 Z M 71 163.921875 " clip-rule="nonzero"/></clipPath></defs><rect x="-37.5" width="450" fill="#ffffff" y="-37.499999" height="449.999989" fill-opacity="1"/><rect x="-37.5" width="450" fill="#ffffff" y="-37.499999" height="449.999989" fill-opacity="1"/><g clip-path="url(#a26926a029)"><g clip-path="url(#965b0ba7b6)"><path fill="#f0eeef" d="M 37.5 131.25 L 337.644531 131.25 L 337.644531 243.75 L 37.5 243.75 Z M 37.5 131.25 " fill-opacity="1" fill-rule="nonzero"/></g></g><g clip-path="url(#91cdaab315)"><g clip-path="url(#6f2cb24f5d)"><path stroke-linecap="butt" transform="matrix(0.75, 0, 0, 0.75, 37.500002, 131.249991)" fill="none" stroke-linejoin="miter" d="M 4.999998 0.0000114917 L 395.000023 0.0000114917 C 396.328148 0.0000114917 397.598982 0.526053 398.536482 1.463553 C 399.473982 2.401053 400.000024 3.671887 400.000024 5.000012 L 400.000024 145.000021 C 400.000024 146.328146 399.473982 147.59898 398.536482 148.53648 C 397.598982 149.47398 396.328148 150.000021 395.000023 150.000021 L 4.999998 150.000021 C 3.671873 150.000021 2.401039 149.47398 1.463539 148.53648 C 0.526039 147.59898 -0.00000271667 146.328146 -0.00000271667 145.000021 L -0.00000271667 5.000012 C -0.00000271667 3.671887 0.526039 2.401053 1.463539 1.463553 C 2.401039 0.526053 3.671873 0.0000114917 4.999998 0.0000114917 Z M 4.999998 0.0000114917 " stroke="#d91e26" stroke-width="2" stroke-opacity="1" stroke-miterlimit="4"/></g></g><g clip-path="url(#8082be2915)"><path fill="#51aee5" d="M 80.929688 225.75 L 80.625 225.660156 C 71.074219 222.675781 63.378906 217.367188 57.699219 209.882812 C 53.1875 203.914062 49.957031 196.554688 48.121094 188.03125 C 45 173.570312 46.914062 160.917969 47.003906 160.382812 L 47.097656 159.753906 L 80.914062 149.242188 L 114.730469 159.753906 L 114.824219 160.382812 C 114.898438 160.917969 116.8125 173.570312 113.707031 188.03125 C 111.871094 196.554688 108.640625 203.914062 104.128906 209.882812 C 98.464844 217.367188 90.753906 222.675781 81.203125 225.660156 Z M 48.917969 161.300781 C 48.566406 164.023438 47.433594 175.316406 50.109375 187.664062 C 51.886719 195.898438 54.992188 202.96875 59.339844 208.691406 C 64.679688 215.742188 71.945312 220.777344 80.929688 223.640625 C 89.925781 220.761719 97.195312 215.730469 102.535156 208.660156 C 106.882812 202.921875 109.972656 195.835938 111.746094 187.605469 C 114.410156 175.269531 113.277344 164.007812 112.925781 161.300781 L 80.914062 151.351562 Z M 48.917969 161.300781 " fill-opacity="1" fill-rule="nonzero"/></g><g clip-path="url(#223b8da358)"><path fill="#101b70" d="M 101.707031 193.820312 L 60.105469 193.820312 C 59.605469 193.820312 59.199219 193.417969 59.199219 192.917969 L 59.199219 175.734375 C 59.199219 175.234375 59.605469 174.828125 60.105469 174.828125 L 101.707031 174.828125 C 102.207031 174.828125 102.609375 175.234375 102.609375 175.734375 L 102.609375 192.917969 C 102.609375 193.417969 102.207031 193.820312 101.707031 193.820312 Z M 61.007812 192.011719 L 100.800781 192.011719 L 100.800781 176.636719 L 61.007812 176.636719 Z M 61.007812 192.011719 " fill-opacity="1" fill-rule="nonzero"/></g><path fill="#101b70" d="M 89.042969 183.875 L 72.765625 183.875 C 72.265625 183.875 71.859375 183.46875 71.859375 182.96875 L 71.859375 179.351562 C 71.859375 178.851562 72.265625 178.445312 72.765625 178.445312 L 89.042969 178.445312 C 89.542969 178.445312 89.949219 178.851562 89.949219 179.351562 L 89.949219 182.96875 C 89.949219 183.46875 89.542969 183.875 89.042969 183.875 Z M 73.667969 182.0625 L 88.140625 182.0625 L 88.140625 180.253906 L 73.667969 180.253906 Z M 73.667969 182.0625 " fill-opacity="1" fill-rule="nonzero"/><path fill="#101b70" d="M 68.242188 201.960938 C 68.011719 201.960938 67.78125 201.871094 67.605469 201.695312 C 67.25 201.34375 67.25 200.769531 67.605469 200.417969 C 67.945312 200.074219 68.34375 199.566406 68.300781 199.078125 C 68.253906 198.554688 67.738281 198.191406 67.734375 198.1875 L 67.742188 198.191406 L 68.746094 196.6875 C 68.871094 196.769531 69.964844 197.535156 70.101562 198.890625 C 70.195312 199.851562 69.785156 200.792969 68.882812 201.695312 C 68.707031 201.871094 68.476562 201.960938 68.242188 201.960938 Z M 68.242188 201.960938 " fill-opacity="1" fill-rule="nonzero"/><path fill="#101b70" d="M 68.242188 205.578125 C 68.011719 205.578125 67.78125 205.492188 67.605469 205.3125 C 66.703125 204.410156 66.292969 203.46875 66.386719 202.507812 C 66.519531 201.15625 67.617188 200.386719 67.742188 200.304688 L 68.746094 201.808594 L 68.753906 201.804688 C 68.75 201.808594 68.230469 202.175781 68.1875 202.695312 C 68.144531 203.183594 68.542969 203.695312 68.882812 204.035156 C 69.234375 204.386719 69.234375 204.960938 68.882812 205.3125 C 68.707031 205.492188 68.476562 205.578125 68.242188 205.578125 Z M 68.242188 205.578125 " fill-opacity="1" fill-rule="nonzero"/><path fill="#101b70" d="M 74.574219 203.769531 C 74.34375 203.769531 74.109375 203.683594 73.933594 203.503906 C 73.582031 203.152344 73.582031 202.578125 73.933594 202.226562 C 74.277344 201.882812 74.675781 201.375 74.632812 200.886719 C 74.585938 200.367188 74.070312 200 74.066406 199.996094 L 74.074219 200 L 75.074219 198.496094 C 75.199219 198.578125 76.296875 199.34375 76.429688 200.699219 C 76.527344 201.660156 76.117188 202.601562 75.214844 203.503906 C 75.039062 203.683594 74.804688 203.769531 74.574219 203.769531 Z M 74.574219 203.769531 " fill-opacity="1" fill-rule="nonzero"/><g clip-path="url(#e601c6f3ac)"><path fill="#101b70" d="M 74.574219 207.386719 C 74.34375 207.386719 74.109375 207.300781 73.933594 207.121094 C 73.03125 206.21875 72.625 205.277344 72.71875 204.316406 C 72.851562 202.964844 73.949219 202.195312 74.074219 202.113281 L 75.074219 203.617188 L 75.085938 203.613281 C 75.078125 203.617188 74.5625 203.984375 74.515625 204.503906 C 74.476562 204.992188 74.871094 205.503906 75.214844 205.84375 C 75.566406 206.195312 75.566406 206.769531 75.214844 207.121094 C 75.039062 207.300781 74.804688 207.386719 74.574219 207.386719 Z M 74.574219 207.386719 " fill-opacity="1" fill-rule="nonzero"/></g><path fill="#101b70" d="M 80.90625 201.960938 C 80.671875 201.960938 80.441406 201.871094 80.265625 201.695312 C 79.914062 201.34375 79.914062 200.769531 80.265625 200.417969 C 80.605469 200.074219 81.003906 199.566406 80.960938 199.078125 C 80.917969 198.554688 80.402344 198.191406 80.394531 198.1875 L 80.402344 198.191406 L 81.40625 196.6875 C 81.53125 196.769531 82.628906 197.535156 82.761719 198.890625 C 82.855469 199.851562 82.445312 200.792969 81.542969 201.695312 C 81.367188 201.871094 81.136719 201.960938 80.90625 201.960938 Z M 80.90625 201.960938 " fill-opacity="1" fill-rule="nonzero"/><path fill="#101b70" d="M 80.90625 205.578125 C 80.671875 205.578125 80.441406 205.492188 80.265625 205.3125 C 79.363281 204.410156 78.953125 203.46875 79.050781 202.507812 C 79.183594 201.15625 80.277344 200.386719 80.402344 200.304688 L 81.40625 201.808594 L 81.414062 201.804688 C 81.410156 201.808594 80.894531 202.175781 80.847656 202.695312 C 80.804688 203.183594 81.203125 203.695312 81.542969 204.035156 C 81.898438 204.386719 81.898438 204.960938 81.542969 205.3125 C 81.367188 205.492188 81.136719 205.578125 80.90625 205.578125 Z M 80.90625 205.578125 " fill-opacity="1" fill-rule="nonzero"/><path fill="#101b70" d="M 87.234375 203.769531 C 87.003906 203.769531 86.773438 203.683594 86.597656 203.503906 C 86.242188 203.152344 86.242188 202.578125 86.597656 202.226562 C 86.9375 201.882812 87.335938 201.375 87.292969 200.886719 C 87.246094 200.367188 86.730469 200 86.726562 199.996094 L 86.734375 200 L 87.738281 198.496094 C 87.863281 198.578125 88.957031 199.34375 89.09375 200.699219 C 89.1875 201.660156 88.777344 202.601562 87.875 203.503906 C 87.699219 203.683594 87.46875 203.769531 87.234375 203.769531 Z M 87.234375 203.769531 " fill-opacity="1" fill-rule="nonzero"/><g clip-path="url(#f51dbfc3b0)"><path fill="#101b70" d="M 87.234375 207.386719 C 87.003906 207.386719 86.773438 207.300781 86.597656 207.121094 C 85.695312 206.21875 85.285156 205.277344 85.378906 204.316406 C 85.515625 202.964844 86.609375 202.195312 86.734375 202.113281 L 87.738281 203.617188 L 87.746094 203.613281 C 87.742188 203.617188 87.222656 203.984375 87.179688 204.503906 C 87.136719 204.992188 87.535156 205.503906 87.875 205.84375 C 88.230469 206.195312 88.230469 206.769531 87.875 207.121094 C 87.699219 207.300781 87.46875 207.386719 87.234375 207.386719 Z M 87.234375 207.386719 " fill-opacity="1" fill-rule="nonzero"/></g><path fill="#101b70" d="M 93.566406 201.960938 C 93.335938 201.960938 93.105469 201.871094 92.925781 201.695312 C 92.574219 201.34375 92.574219 200.769531 92.925781 200.417969 C 93.269531 200.074219 93.667969 199.566406 93.625 199.078125 C 93.578125 198.554688 93.0625 198.191406 93.058594 198.1875 L 93.066406 198.191406 L 94.066406 196.6875 C 94.191406 196.769531 95.289062 197.535156 95.421875 198.890625 C 95.519531 199.851562 95.109375 200.792969 94.207031 201.695312 C 94.03125 201.871094 93.796875 201.960938 93.566406 201.960938 Z M 93.566406 201.960938 " fill-opacity="1" fill-rule="nonzero"/><path fill="#101b70" d="M 93.566406 205.578125 C 93.335938 205.578125 93.105469 205.492188 92.925781 205.3125 C 92.023438 204.410156 91.617188 203.46875 91.710938 202.507812 C 91.84375 201.15625 92.941406 200.386719 93.066406 200.304688 L 94.070312 201.808594 L 94.078125 201.804688 C 94.070312 201.808594 93.554688 202.175781 93.507812 202.695312 C 93.46875 203.183594 93.863281 203.695312 94.207031 204.035156 C 94.558594 204.386719 94.558594 204.960938 94.207031 205.3125 C 94.03125 205.492188 93.796875 205.578125 93.566406 205.578125 Z M 93.566406 205.578125 " fill-opacity="1" fill-rule="nonzero"/><g clip-path="url(#136c87fd0c)"><path fill="#101b70" d="M 73.667969 171.210938 C 73.496094 171.210938 73.320312 171.160156 73.167969 171.058594 C 72.894531 170.875 72.738281 170.558594 72.769531 170.226562 L 72.957031 168.097656 L 71.964844 166.203125 C 71.8125 165.910156 71.828125 165.558594 72.011719 165.285156 C 72.195312 165.007812 72.515625 164.855469 72.84375 164.882812 L 74.972656 165.070312 L 76.867188 164.078125 C 77.160156 163.925781 77.515625 163.945312 77.789062 164.128906 C 78.0625 164.3125 78.21875 164.628906 78.1875 164.960938 L 78 167.089844 L 78.96875 168.933594 C 79.050781 169.070312 79.097656 169.230469 79.097656 169.402344 C 79.097656 169.902344 78.695312 170.304688 78.199219 170.308594 C 78.171875 170.308594 78.140625 170.304688 78.113281 170.304688 L 75.984375 170.117188 L 74.089844 171.109375 C 73.957031 171.175781 73.8125 171.210938 73.667969 171.210938 Z M 74.332031 166.832031 L 74.679688 167.496094 C 74.761719 167.648438 74.796875 167.820312 74.78125 167.992188 L 74.714844 168.738281 L 75.378906 168.390625 C 75.53125 168.3125 75.707031 168.277344 75.878906 168.292969 L 76.625 168.355469 L 76.277344 167.695312 C 76.195312 167.539062 76.160156 167.367188 76.175781 167.195312 L 76.242188 166.449219 L 75.578125 166.796875 C 75.425781 166.875 75.253906 166.910156 75.078125 166.894531 Z M 74.332031 166.832031 " fill-opacity="1" fill-rule="nonzero"/></g><path fill="#101b70" d="M 83.617188 173.339844 C 83.441406 173.339844 83.269531 173.289062 83.117188 173.1875 C 82.839844 173.003906 82.6875 172.6875 82.71875 172.355469 L 82.902344 170.226562 L 81.914062 168.332031 C 81.757812 168.039062 81.777344 167.6875 81.960938 167.414062 C 82.144531 167.136719 82.464844 166.984375 82.792969 167.011719 L 84.921875 167.199219 L 86.816406 166.207031 C 87.109375 166.054688 87.460938 166.074219 87.738281 166.257812 C 88.011719 166.441406 88.164062 166.757812 88.136719 167.089844 L 87.949219 169.21875 L 88.914062 171.0625 C 89 171.199219 89.046875 171.359375 89.046875 171.53125 C 89.046875 172.027344 88.644531 172.433594 88.148438 172.4375 C 88.117188 172.4375 88.089844 172.433594 88.0625 172.433594 L 85.929688 172.246094 L 84.039062 173.238281 C 83.90625 173.304688 83.761719 173.339844 83.617188 173.339844 Z M 84.28125 168.960938 L 84.628906 169.621094 C 84.710938 169.777344 84.746094 169.949219 84.730469 170.121094 L 84.664062 170.867188 L 85.328125 170.519531 C 85.480469 170.441406 85.652344 170.40625 85.824219 170.421875 L 86.570312 170.484375 L 86.226562 169.824219 C 86.144531 169.667969 86.109375 169.496094 86.125 169.324219 L 86.191406 168.578125 L 85.527344 168.925781 C 85.375 169.003906 85.199219 169.039062 85.027344 169.023438 Z M 84.28125 168.960938 " fill-opacity="1" fill-rule="nonzero"/><path fill="#101b70" d="M 65.53125 173.019531 C 64.035156 173.019531 62.816406 171.804688 62.816406 170.308594 C 62.816406 168.8125 64.035156 167.59375 65.53125 167.59375 C 67.027344 167.59375 68.242188 168.8125 68.242188 170.308594 C 68.242188 171.804688 67.027344 173.019531 65.53125 173.019531 Z M 65.53125 169.402344 C 65.03125 169.402344 64.625 169.808594 64.625 170.308594 C 64.625 170.804688 65.03125 171.210938 65.53125 171.210938 C 66.027344 171.210938 66.433594 170.804688 66.433594 170.308594 C 66.433594 169.808594 66.027344 169.402344 65.53125 169.402344 Z M 65.53125 169.402344 " fill-opacity="1" fill-rule="nonzero"/><path fill="#101b70" d="M 96.28125 170.308594 C 94.785156 170.308594 93.566406 169.089844 93.566406 167.59375 C 93.566406 166.097656 94.785156 164.878906 96.28125 164.878906 C 97.777344 164.878906 98.992188 166.097656 98.992188 167.59375 C 98.992188 169.089844 97.777344 170.308594 96.28125 170.308594 Z M 96.28125 166.691406 C 95.78125 166.691406 95.375 167.09375 95.375 167.59375 C 95.375 168.09375 95.78125 168.5 96.28125 168.5 C 96.777344 168.5 97.183594 168.09375 97.183594 167.59375 C 97.183594 167.09375 96.777344 166.691406 96.28125 166.691406 Z M 96.28125 166.691406 " fill-opacity="1" fill-rule="nonzero"/><path fill="#101b70" d="M 95.375 193.820312 C 94.875 193.820312 94.472656 193.417969 94.472656 192.917969 L 94.472656 187.492188 L 67.339844 187.492188 L 67.339844 192.917969 C 67.339844 193.417969 66.933594 193.820312 66.433594 193.820312 C 65.933594 193.820312 65.53125 193.417969 65.53125 192.917969 L 65.53125 186.585938 C 65.53125 186.085938 65.933594 185.683594 66.433594 185.683594 L 95.375 185.683594 C 95.875 185.683594 96.28125 186.085938 96.28125 186.585938 L 96.28125 192.917969 C 96.28125 193.417969 95.875 193.820312 95.375 193.820312 Z M 95.375 193.820312 " fill-opacity="1" fill-rule="nonzero"/><path fill="#101b70" d="M 70.050781 193.820312 C 69.550781 193.820312 69.148438 193.417969 69.148438 192.917969 L 69.148438 190.203125 C 69.148438 189.703125 69.550781 189.300781 70.050781 189.300781 C 70.550781 189.300781 70.957031 189.703125 70.957031 190.203125 L 70.957031 192.917969 C 70.957031 193.417969 70.550781 193.820312 70.050781 193.820312 Z M 70.050781 193.820312 " fill-opacity="1" fill-rule="nonzero"/><path fill="#101b70" d="M 73.667969 193.820312 C 73.171875 193.820312 72.765625 193.417969 72.765625 192.917969 L 72.765625 190.203125 C 72.765625 189.703125 73.171875 189.300781 73.667969 189.300781 C 74.167969 189.300781 74.574219 189.703125 74.574219 190.203125 L 74.574219 192.917969 C 74.574219 193.417969 74.167969 193.820312 73.667969 193.820312 Z M 73.667969 193.820312 " fill-opacity="1" fill-rule="nonzero"/><path fill="#101b70" d="M 77.289062 193.820312 C 76.789062 193.820312 76.382812 193.417969 76.382812 192.917969 L 76.382812 190.203125 C 76.382812 189.703125 76.789062 189.300781 77.289062 189.300781 C 77.785156 189.300781 78.191406 189.703125 78.191406 190.203125 L 78.191406 192.917969 C 78.191406 193.417969 77.785156 193.820312 77.289062 193.820312 Z M 77.289062 193.820312 " fill-opacity="1" fill-rule="nonzero"/><path fill="#101b70" d="M 80.90625 193.820312 C 80.40625 193.820312 80 193.417969 80 192.917969 L 80 190.203125 C 80 189.703125 80.40625 189.300781 80.90625 189.300781 C 81.40625 189.300781 81.808594 189.703125 81.808594 190.203125 L 81.808594 192.917969 C 81.808594 193.417969 81.40625 193.820312 80.90625 193.820312 Z M 80.90625 193.820312 " fill-opacity="1" fill-rule="nonzero"/><path fill="#101b70" d="M 84.523438 193.820312 C 84.023438 193.820312 83.617188 193.417969 83.617188 192.917969 L 83.617188 190.203125 C 83.617188 189.703125 84.023438 189.300781 84.523438 189.300781 C 85.023438 189.300781 85.425781 189.703125 85.425781 190.203125 L 85.425781 192.917969 C 85.425781 193.417969 85.023438 193.820312 84.523438 193.820312 Z M 84.523438 193.820312 " fill-opacity="1" fill-rule="nonzero"/><path fill="#101b70" d="M 88.140625 193.820312 C 87.640625 193.820312 87.234375 193.417969 87.234375 192.917969 L 87.234375 190.203125 C 87.234375 189.703125 87.640625 189.300781 88.140625 189.300781 C 88.640625 189.300781 89.042969 189.703125 89.042969 190.203125 L 89.042969 192.917969 C 89.042969 193.417969 88.640625 193.820312 88.140625 193.820312 Z M 88.140625 193.820312 " fill-opacity="1" fill-rule="nonzero"/><path fill="#101b70" d="M 91.757812 193.820312 C 91.257812 193.820312 90.851562 193.417969 90.851562 192.917969 L 90.851562 190.203125 C 90.851562 189.703125 91.257812 189.300781 91.757812 189.300781 C 92.257812 189.300781 92.664062 189.703125 92.664062 190.203125 L 92.664062 192.917969 C 92.664062 193.417969 92.257812 193.820312 91.757812 193.820312 Z M 91.757812 193.820312 " fill-opacity="1" fill-rule="nonzero"/><g fill="#4493d6" fill-opacity="1"><g transform="translate(127.836946, 187.86154)"><g><path d="M 3.84375 0 L 0.046875 0 L 5.265625 -15.265625 L 9.140625 -15.265625 L 14.359375 0 L 10.5625 0 L 9.734375 -2.734375 L 4.65625 -2.734375 Z M 7.203125 -11.28125 L 5.59375 -5.84375 L 8.796875 -5.84375 Z M 7.203125 -11.28125 "/></g></g></g><g fill="#4493d6" fill-opacity="1"><g transform="translate(142.231267, 187.86154)"><g><path d="M 4.78125 0 L 1.203125 0 L 1.203125 -15.265625 L 4.78125 -15.265625 Z M 4.78125 0 "/></g></g></g><g fill="#4493d6" fill-opacity="1"><g transform="translate(148.228897, 187.86154)"><g><path d="M 11.046875 -6.546875 L 13.6875 0 L 9.90625 0 L 7.6875 -5.875 L 4.78125 -5.875 L 4.78125 0 L 1.203125 0 L 1.203125 -15.265625 L 8.40625 -15.265625 C 9.332031 -15.265625 10.160156 -15.109375 10.890625 -14.796875 C 11.617188 -14.492188 12.1875 -14.003906 12.59375 -13.328125 C 13.007812 -12.648438 13.21875 -11.757812 13.21875 -10.65625 C 13.21875 -9.6875 13.019531 -8.851562 12.625 -8.15625 C 12.238281 -7.46875 11.710938 -6.929688 11.046875 -6.546875 Z M 7.90625 -12.0625 L 4.78125 -12.0625 L 4.78125 -8.984375 L 7.90625 -8.984375 C 9.09375 -8.984375 9.6875 -9.503906 9.6875 -10.546875 C 9.6875 -11.554688 9.09375 -12.0625 7.90625 -12.0625 Z M 7.90625 -12.0625 "/></g></g></g><g fill="#4493d6" fill-opacity="1"><g transform="translate(162.383316, 187.86154)"><g/></g></g><g fill="#4493d6" fill-opacity="1"><g transform="translate(167.581268, 187.86154)"><g><path d="M 8.265625 0.34375 C 6.953125 0.34375 5.816406 0.128906 4.859375 -0.296875 C 3.898438 -0.722656 3.109375 -1.304688 2.484375 -2.046875 C 1.867188 -2.785156 1.40625 -3.632812 1.09375 -4.59375 C 0.789062 -5.5625 0.640625 -6.578125 0.640625 -7.640625 C 0.640625 -8.703125 0.789062 -9.707031 1.09375 -10.65625 C 1.40625 -11.613281 1.867188 -12.460938 2.484375 -13.203125 C 3.109375 -13.941406 3.898438 -14.519531 4.859375 -14.9375 C 5.816406 -15.363281 6.953125 -15.578125 8.265625 -15.578125 C 9.609375 -15.578125 10.753906 -15.347656 11.703125 -14.890625 C 12.660156 -14.429688 13.414062 -13.789062 13.96875 -12.96875 C 14.53125 -12.144531 14.878906 -11.1875 15.015625 -10.09375 L 11.09375 -10.09375 C 10.988281 -10.882812 10.664062 -11.460938 10.125 -11.828125 C 9.582031 -12.191406 8.9375 -12.375 8.1875 -12.375 C 6.96875 -12.375 6.035156 -11.941406 5.390625 -11.078125 C 4.742188 -10.222656 4.421875 -9.078125 4.421875 -7.640625 C 4.421875 -6.179688 4.742188 -5.019531 5.390625 -4.15625 C 6.035156 -3.289062 6.96875 -2.859375 8.1875 -2.859375 C 8.9375 -2.859375 9.578125 -3.046875 10.109375 -3.421875 C 10.648438 -3.796875 10.976562 -4.382812 11.09375 -5.1875 L 15.015625 -5.1875 C 14.878906 -4.09375 14.53125 -3.128906 13.96875 -2.296875 C 13.414062 -1.460938 12.660156 -0.8125 11.703125 -0.34375 C 10.753906 0.113281 9.609375 0.34375 8.265625 0.34375 Z M 8.265625 0.34375 "/></g></g></g><g fill="#4493d6" fill-opacity="1"><g transform="translate(183.155119, 187.86154)"><g><path d="M 8.265625 0.34375 C 6.953125 0.34375 5.816406 0.128906 4.859375 -0.296875 C 3.898438 -0.722656 3.109375 -1.304688 2.484375 -2.046875 C 1.867188 -2.785156 1.40625 -3.632812 1.09375 -4.59375 C 0.789062 -5.5625 0.640625 -6.578125 0.640625 -7.640625 C 0.640625 -8.703125 0.789062 -9.707031 1.09375 -10.65625 C 1.40625 -11.613281 1.867188 -12.460938 2.484375 -13.203125 C 3.109375 -13.941406 3.898438 -14.519531 4.859375 -14.9375 C 5.816406 -15.363281 6.953125 -15.578125 8.265625 -15.578125 C 9.554688 -15.578125 10.675781 -15.363281 11.625 -14.9375 C 12.582031 -14.519531 13.375 -13.941406 14 -13.203125 C 14.625 -12.460938 15.085938 -11.613281 15.390625 -10.65625 C 15.703125 -9.707031 15.859375 -8.703125 15.859375 -7.640625 C 15.859375 -6.578125 15.703125 -5.5625 15.390625 -4.59375 C 15.085938 -3.632812 14.625 -2.785156 14 -2.046875 C 13.375 -1.304688 12.582031 -0.722656 11.625 -0.296875 C 10.675781 0.128906 9.554688 0.34375 8.265625 0.34375 Z M 8.265625 -2.859375 C 9.460938 -2.859375 10.394531 -3.289062 11.0625 -4.15625 C 11.738281 -5.019531 12.078125 -6.179688 12.078125 -7.640625 C 12.078125 -9.078125 11.738281 -10.222656 11.0625 -11.078125 C 10.394531 -11.941406 9.460938 -12.375 8.265625 -12.375 C 7.054688 -12.375 6.113281 -11.941406 5.4375 -11.078125 C 4.757812 -10.222656 4.421875 -9.078125 4.421875 -7.640625 C 4.421875 -6.179688 4.757812 -5.019531 5.4375 -4.15625 C 6.113281 -3.289062 7.054688 -2.859375 8.265625 -2.859375 Z M 8.265625 -2.859375 "/></g></g></g><g fill="#4493d6" fill-opacity="1"><g transform="translate(199.668599, 187.86154)"><g><path d="M 4.78125 0 L 1.203125 0 L 1.203125 -15.265625 L 4.84375 -15.265625 L 10.703125 -6 L 10.703125 -15.265625 L 14.28125 -15.265625 L 14.28125 0 L 10.640625 0 L 4.78125 -9.3125 Z M 4.78125 0 "/></g></g></g><g fill="#4493d6" fill-opacity="1"><g transform="translate(215.142498, 187.86154)"><g><path d="M 5.8125 0 L 1.203125 0 L 1.203125 -15.265625 L 5.8125 -15.265625 C 8.414062 -15.265625 10.410156 -14.609375 11.796875 -13.296875 C 13.179688 -11.992188 13.875 -10.113281 13.875 -7.65625 C 13.875 -5.1875 13.179688 -3.289062 11.796875 -1.96875 C 10.410156 -0.65625 8.414062 0 5.8125 0 Z M 4.78125 -12.0625 L 4.78125 -3.203125 L 5.78125 -3.203125 C 7.25 -3.203125 8.367188 -3.554688 9.140625 -4.265625 C 9.910156 -4.984375 10.296875 -6.113281 10.296875 -7.65625 C 10.296875 -9.113281 9.890625 -10.210938 9.078125 -10.953125 C 8.265625 -11.691406 7.164062 -12.0625 5.78125 -12.0625 Z M 4.78125 -12.0625 "/></g></g></g><g fill="#4493d6" fill-opacity="1"><g transform="translate(229.656775, 187.86154)"><g><path d="M 4.78125 0 L 1.203125 0 L 1.203125 -15.265625 L 4.78125 -15.265625 Z M 4.78125 0 "/></g></g></g><g fill="#4493d6" fill-opacity="1"><g transform="translate(235.654406, 187.86154)"><g><path d="M 8.046875 0 L 4.453125 0 L 4.453125 -12.0625 L 0.15625 -12.0625 L 0.15625 -15.265625 L 12.34375 -15.265625 L 12.34375 -12.0625 L 8.046875 -12.0625 Z M 8.046875 0 "/></g></g></g><g fill="#4493d6" fill-opacity="1"><g transform="translate(248.149477, 187.86154)"><g><path d="M 4.78125 0 L 1.203125 0 L 1.203125 -15.265625 L 4.78125 -15.265625 Z M 4.78125 0 "/></g></g></g><g fill="#4493d6" fill-opacity="1"><g transform="translate(254.147107, 187.86154)"><g><path d="M 8.265625 0.34375 C 6.953125 0.34375 5.816406 0.128906 4.859375 -0.296875 C 3.898438 -0.722656 3.109375 -1.304688 2.484375 -2.046875 C 1.867188 -2.785156 1.40625 -3.632812 1.09375 -4.59375 C 0.789062 -5.5625 0.640625 -6.578125 0.640625 -7.640625 C 0.640625 -8.703125 0.789062 -9.707031 1.09375 -10.65625 C 1.40625 -11.613281 1.867188 -12.460938 2.484375 -13.203125 C 3.109375 -13.941406 3.898438 -14.519531 4.859375 -14.9375 C 5.816406 -15.363281 6.953125 -15.578125 8.265625 -15.578125 C 9.554688 -15.578125 10.675781 -15.363281 11.625 -14.9375 C 12.582031 -14.519531 13.375 -13.941406 14 -13.203125 C 14.625 -12.460938 15.085938 -11.613281 15.390625 -10.65625 C 15.703125 -9.707031 15.859375 -8.703125 15.859375 -7.640625 C 15.859375 -6.578125 15.703125 -5.5625 15.390625 -4.59375 C 15.085938 -3.632812 14.625 -2.785156 14 -2.046875 C 13.375 -1.304688 12.582031 -0.722656 11.625 -0.296875 C 10.675781 0.128906 9.554688 0.34375 8.265625 0.34375 Z M 8.265625 -2.859375 C 9.460938 -2.859375 10.394531 -3.289062 11.0625 -4.15625 C 11.738281 -5.019531 12.078125 -6.179688 12.078125 -7.640625 C 12.078125 -9.078125 11.738281 -10.222656 11.0625 -11.078125 C 10.394531 -11.941406 9.460938 -12.375 8.265625 -12.375 C 7.054688 -12.375 6.113281 -11.941406 5.4375 -11.078125 C 4.757812 -10.222656 4.421875 -9.078125 4.421875 -7.640625 C 4.421875 -6.179688 4.757812 -5.019531 5.4375 -4.15625 C 6.113281 -3.289062 7.054688 -2.859375 8.265625 -2.859375 Z M 8.265625 -2.859375 "/></g></g></g><g fill="#4493d6" fill-opacity="1"><g transform="translate(270.660587, 187.86154)"><g><path d="M 4.78125 0 L 1.203125 0 L 1.203125 -15.265625 L 4.84375 -15.265625 L 10.703125 -6 L 10.703125 -15.265625 L 14.28125 -15.265625 L 14.28125 0 L 10.640625 0 L 4.78125 -9.3125 Z M 4.78125 0 "/></g></g></g><g fill="#4493d6" fill-opacity="1"><g transform="translate(286.134486, 187.86154)"><g><path d="M 11.625 0 L 1.203125 0 L 1.203125 -15.265625 L 11.625 -15.265625 L 11.625 -12.0625 L 4.78125 -12.0625 L 4.78125 -9.21875 L 10.953125 -9.21875 L 10.953125 -6.046875 L 4.78125 -6.046875 L 4.78125 -3.203125 L 11.625 -3.203125 Z M 11.625 0 "/></g></g></g><g fill="#4493d6" fill-opacity="1"><g transform="translate(298.609564, 187.86154)"><g><path d="M 11.046875 -6.546875 L 13.6875 0 L 9.90625 0 L 7.6875 -5.875 L 4.78125 -5.875 L 4.78125 0 L 1.203125 0 L 1.203125 -15.265625 L 8.40625 -15.265625 C 9.332031 -15.265625 10.160156 -15.109375 10.890625 -14.796875 C 11.617188 -14.492188 12.1875 -14.003906 12.59375 -13.328125 C 13.007812 -12.648438 13.21875 -11.757812 13.21875 -10.65625 C 13.21875 -9.6875 13.019531 -8.851562 12.625 -8.15625 C 12.238281 -7.46875 11.710938 -6.929688 11.046875 -6.546875 Z M 7.90625 -12.0625 L 4.78125 -12.0625 L 4.78125 -8.984375 L 7.90625 -8.984375 C 9.09375 -8.984375 9.6875 -9.503906 9.6875 -10.546875 C 9.6875 -11.554688 9.09375 -12.0625 7.90625 -12.0625 Z M 7.90625 -12.0625 "/></g></g></g><g fill="#d91e26" fill-opacity="1"><g transform="translate(154.690527, 204.178724)"><g><path d="M 4.390625 0 L 0.25 0 L 1.390625 -6.40625 L 5.53125 -6.40625 L 5.40625 -5.71875 L 2.03125 -5.71875 L 1.65625 -3.5625 L 4.625 -3.5625 L 4.515625 -2.875 L 1.53125 -2.875 L 1.15625 -0.703125 L 4.515625 -0.703125 Z M 4.390625 0 "/></g></g></g><g fill="#d91e26" fill-opacity="1"><g transform="translate(163.299332, 204.178724)"><g><path d="M 2.5625 0.078125 C 2.132812 0.078125 1.75 0.0078125 1.40625 -0.125 C 1.0625 -0.257812 0.785156 -0.476562 0.578125 -0.78125 C 0.378906 -1.082031 0.28125 -1.46875 0.28125 -1.9375 L 1.0625 -1.9375 C 1.070312 -1.59375 1.160156 -1.320312 1.328125 -1.125 C 1.492188 -0.9375 1.695312 -0.800781 1.9375 -0.71875 C 2.1875 -0.644531 2.445312 -0.609375 2.71875 -0.609375 C 3.207031 -0.609375 3.601562 -0.722656 3.90625 -0.953125 C 4.21875 -1.191406 4.375 -1.523438 4.375 -1.953125 C 4.375 -2.203125 4.296875 -2.394531 4.140625 -2.53125 C 3.992188 -2.664062 3.800781 -2.769531 3.5625 -2.84375 C 3.332031 -2.914062 3.082031 -2.976562 2.8125 -3.03125 C 2.59375 -3.082031 2.375 -3.132812 2.15625 -3.1875 C 1.945312 -3.25 1.753906 -3.328125 1.578125 -3.421875 C 1.398438 -3.515625 1.257812 -3.640625 1.15625 -3.796875 C 1.0625 -3.953125 1.015625 -4.148438 1.015625 -4.390625 C 1.015625 -4.816406 1.125 -5.1875 1.34375 -5.5 C 1.5625 -5.820312 1.851562 -6.066406 2.21875 -6.234375 C 2.59375 -6.410156 3.003906 -6.5 3.453125 -6.5 C 3.816406 -6.5 4.148438 -6.4375 4.453125 -6.3125 C 4.753906 -6.1875 4.992188 -5.988281 5.171875 -5.71875 C 5.359375 -5.445312 5.453125 -5.09375 5.453125 -4.65625 L 4.703125 -4.65625 C 4.691406 -4.9375 4.617188 -5.160156 4.484375 -5.328125 C 4.359375 -5.503906 4.191406 -5.628906 3.984375 -5.703125 C 3.773438 -5.773438 3.554688 -5.8125 3.328125 -5.8125 C 2.890625 -5.8125 2.523438 -5.703125 2.234375 -5.484375 C 1.953125 -5.273438 1.8125 -4.988281 1.8125 -4.625 C 1.8125 -4.414062 1.878906 -4.25 2.015625 -4.125 C 2.148438 -4.007812 2.328125 -3.914062 2.546875 -3.84375 C 2.773438 -3.78125 3.015625 -3.722656 3.265625 -3.671875 C 3.492188 -3.617188 3.71875 -3.554688 3.9375 -3.484375 C 4.164062 -3.421875 4.367188 -3.335938 4.546875 -3.234375 C 4.734375 -3.128906 4.882812 -2.988281 5 -2.8125 C 5.113281 -2.644531 5.171875 -2.425781 5.171875 -2.15625 C 5.171875 -1.695312 5.054688 -1.296875 4.828125 -0.953125 C 4.597656 -0.617188 4.285156 -0.363281 3.890625 -0.1875 C 3.503906 -0.0078125 3.0625 0.078125 2.5625 0.078125 Z M 2.5625 0.078125 "/></g></g></g><g fill="#d91e26" fill-opacity="1"><g transform="translate(172.386862, 204.178724)"><g><path d="M 1.03125 0 L 0.25 0 L 1.390625 -6.40625 L 3.78125 -6.40625 C 4.3125 -6.40625 4.734375 -6.289062 5.046875 -6.0625 C 5.359375 -5.832031 5.515625 -5.484375 5.515625 -5.015625 C 5.515625 -4.554688 5.410156 -4.15625 5.203125 -3.8125 C 5.003906 -3.46875 4.722656 -3.195312 4.359375 -3 C 4.003906 -2.800781 3.59375 -2.703125 3.125 -2.703125 L 1.5 -2.703125 Z M 2.03125 -5.71875 L 1.625 -3.390625 L 3.046875 -3.390625 C 3.367188 -3.390625 3.65625 -3.445312 3.90625 -3.5625 C 4.164062 -3.675781 4.367188 -3.835938 4.515625 -4.046875 C 4.660156 -4.265625 4.734375 -4.515625 4.734375 -4.796875 C 4.734375 -5.097656 4.628906 -5.328125 4.421875 -5.484375 C 4.222656 -5.640625 3.929688 -5.71875 3.546875 -5.71875 Z M 2.03125 -5.71875 "/></g></g></g><g fill="#d91e26" fill-opacity="1"><g transform="translate(181.197234, 204.178724)"><g><path d="M 4.390625 0 L 0.25 0 L 1.390625 -6.40625 L 5.53125 -6.40625 L 5.40625 -5.71875 L 2.03125 -5.71875 L 1.65625 -3.5625 L 4.625 -3.5625 L 4.515625 -2.875 L 1.53125 -2.875 L 1.15625 -0.703125 L 4.515625 -0.703125 Z M 4.390625 0 "/></g></g></g><g fill="#d91e26" fill-opacity="1"><g transform="translate(189.80604, 204.178724)"><g><path d="M 2.953125 0.078125 C 2.378906 0.078125 1.910156 -0.03125 1.546875 -0.25 C 1.191406 -0.476562 0.925781 -0.78125 0.75 -1.15625 C 0.582031 -1.53125 0.5 -1.945312 0.5 -2.40625 C 0.5 -2.96875 0.585938 -3.492188 0.765625 -3.984375 C 0.941406 -4.472656 1.1875 -4.90625 1.5 -5.28125 C 1.820312 -5.65625 2.203125 -5.953125 2.640625 -6.171875 C 3.085938 -6.390625 3.582031 -6.5 4.125 -6.5 C 4.59375 -6.5 4.992188 -6.421875 5.328125 -6.265625 C 5.660156 -6.109375 5.914062 -5.890625 6.09375 -5.609375 C 6.269531 -5.328125 6.359375 -5.003906 6.359375 -4.640625 L 5.515625 -4.640625 C 5.492188 -4.992188 5.347656 -5.273438 5.078125 -5.484375 C 4.804688 -5.703125 4.4375 -5.8125 3.96875 -5.8125 C 3.550781 -5.8125 3.175781 -5.71875 2.84375 -5.53125 C 2.519531 -5.351562 2.238281 -5.109375 2 -4.796875 C 1.769531 -4.492188 1.59375 -4.144531 1.46875 -3.75 C 1.34375 -3.351562 1.28125 -2.9375 1.28125 -2.5 C 1.28125 -1.945312 1.425781 -1.492188 1.71875 -1.140625 C 2.019531 -0.785156 2.46875 -0.609375 3.0625 -0.609375 C 3.519531 -0.609375 3.921875 -0.71875 4.265625 -0.9375 C 4.617188 -1.164062 4.875 -1.5 5.03125 -1.9375 L 5.875 -1.9375 C 5.664062 -1.320312 5.304688 -0.832031 4.796875 -0.46875 C 4.285156 -0.101562 3.671875 0.078125 2.953125 0.078125 Z M 2.953125 0.078125 "/></g></g></g><g fill="#d91e26" fill-opacity="1"><g transform="translate(199.523486, 204.178724)"><g><path d="M 1.03125 0 L 0.25 0 L 1.390625 -6.40625 L 2.15625 -6.40625 Z M 1.03125 0 "/></g></g></g><g fill="#d91e26" fill-opacity="1"><g transform="translate(205.066705, 204.178724)"><g><path d="M 5.296875 0 L 4.5625 0 L 4.28125 -1.578125 L 1.375 -1.578125 L 0.53125 0 L -0.296875 0 L 3.203125 -6.40625 L 4.078125 -6.40625 Z M 3.53125 -5.625 L 1.734375 -2.265625 L 4.15625 -2.265625 Z M 3.53125 -5.625 "/></g></g></g><g fill="#d91e26" fill-opacity="1"><g transform="translate(214.330618, 204.178724)"><g><path d="M 3.90625 0 L 0.25 0 L 1.390625 -6.40625 L 2.15625 -6.40625 L 1.15625 -0.703125 L 4.03125 -0.703125 Z M 3.90625 0 "/></g></g></g><g fill="#d91e26" fill-opacity="1"><g transform="translate(222.200317, 204.178724)"><g><path d="M 1.03125 0 L 0.25 0 L 1.390625 -6.40625 L 2.15625 -6.40625 Z M 1.03125 0 "/></g></g></g><g fill="#d91e26" fill-opacity="1"><g transform="translate(227.743535, 204.178724)"><g><path d="M 2.5625 0.078125 C 2.132812 0.078125 1.75 0.0078125 1.40625 -0.125 C 1.0625 -0.257812 0.785156 -0.476562 0.578125 -0.78125 C 0.378906 -1.082031 0.28125 -1.46875 0.28125 -1.9375 L 1.0625 -1.9375 C 1.070312 -1.59375 1.160156 -1.320312 1.328125 -1.125 C 1.492188 -0.9375 1.695312 -0.800781 1.9375 -0.71875 C 2.1875 -0.644531 2.445312 -0.609375 2.71875 -0.609375 C 3.207031 -0.609375 3.601562 -0.722656 3.90625 -0.953125 C 4.21875 -1.191406 4.375 -1.523438 4.375 -1.953125 C 4.375 -2.203125 4.296875 -2.394531 4.140625 -2.53125 C 3.992188 -2.664062 3.800781 -2.769531 3.5625 -2.84375 C 3.332031 -2.914062 3.082031 -2.976562 2.8125 -3.03125 C 2.59375 -3.082031 2.375 -3.132812 2.15625 -3.1875 C 1.945312 -3.25 1.753906 -3.328125 1.578125 -3.421875 C 1.398438 -3.515625 1.257812 -3.640625 1.15625 -3.796875 C 1.0625 -3.953125 1.015625 -4.148438 1.015625 -4.390625 C 1.015625 -4.816406 1.125 -5.1875 1.34375 -5.5 C 1.5625 -5.820312 1.851562 -6.066406 2.21875 -6.234375 C 2.59375 -6.410156 3.003906 -6.5 3.453125 -6.5 C 3.816406 -6.5 4.148438 -6.4375 4.453125 -6.3125 C 4.753906 -6.1875 4.992188 -5.988281 5.171875 -5.71875 C 5.359375 -5.445312 5.453125 -5.09375 5.453125 -4.65625 L 4.703125 -4.65625 C 4.691406 -4.9375 4.617188 -5.160156 4.484375 -5.328125 C 4.359375 -5.503906 4.191406 -5.628906 3.984375 -5.703125 C 3.773438 -5.773438 3.554688 -5.8125 3.328125 -5.8125 C 2.890625 -5.8125 2.523438 -5.703125 2.234375 -5.484375 C 1.953125 -5.273438 1.8125 -4.988281 1.8125 -4.625 C 1.8125 -4.414062 1.878906 -4.25 2.015625 -4.125 C 2.148438 -4.007812 2.328125 -3.914062 2.546875 -3.84375 C 2.773438 -3.78125 3.015625 -3.722656 3.265625 -3.671875 C 3.492188 -3.617188 3.71875 -3.554688 3.9375 -3.484375 C 4.164062 -3.421875 4.367188 -3.335938 4.546875 -3.234375 C 4.734375 -3.128906 4.882812 -2.988281 5 -2.8125 C 5.113281 -2.644531 5.171875 -2.425781 5.171875 -2.15625 C 5.171875 -1.695312 5.054688 -1.296875 4.828125 -0.953125 C 4.597656 -0.617188 4.285156 -0.363281 3.890625 -0.1875 C 3.503906 -0.0078125 3.0625 0.078125 2.5625 0.078125 Z M 2.5625 0.078125 "/></g></g></g><g fill="#d91e26" fill-opacity="1"><g transform="translate(236.831063, 204.178724)"><g><path d="M 2.640625 0 L 1.875 0 L 2.890625 -5.71875 L 0.71875 -5.71875 L 0.84375 -6.40625 L 5.953125 -6.40625 L 5.828125 -5.71875 L 3.65625 -5.71875 Z M 2.640625 0 "/></g></g></g><g fill="#d91e26" fill-opacity="1"><g transform="translate(245.616246, 204.178724)"><g><path d="M 5.296875 0 L 4.5625 0 L 4.28125 -1.578125 L 1.375 -1.578125 L 0.53125 0 L -0.296875 0 L 3.203125 -6.40625 L 4.078125 -6.40625 Z M 3.53125 -5.625 L 1.734375 -2.265625 L 4.15625 -2.265625 Z M 3.53125 -5.625 "/></g></g></g><g fill="#d91e26" fill-opacity="1"><g transform="translate(254.880164, 204.178724)"><g><path d="M 2.5625 0.078125 C 2.132812 0.078125 1.75 0.0078125 1.40625 -0.125 C 1.0625 -0.257812 0.785156 -0.476562 0.578125 -0.78125 C 0.378906 -1.082031 0.28125 -1.46875 0.28125 -1.9375 L 1.0625 -1.9375 C 1.070312 -1.59375 1.160156 -1.320312 1.328125 -1.125 C 1.492188 -0.9375 1.695312 -0.800781 1.9375 -0.71875 C 2.1875 -0.644531 2.445312 -0.609375 2.71875 -0.609375 C 3.207031 -0.609375 3.601562 -0.722656 3.90625 -0.953125 C 4.21875 -1.191406 4.375 -1.523438 4.375 -1.953125 C 4.375 -2.203125 4.296875 -2.394531 4.140625 -2.53125 C 3.992188 -2.664062 3.800781 -2.769531 3.5625 -2.84375 C 3.332031 -2.914062 3.082031 -2.976562 2.8125 -3.03125 C 2.59375 -3.082031 2.375 -3.132812 2.15625 -3.1875 C 1.945312 -3.25 1.753906 -3.328125 1.578125 -3.421875 C 1.398438 -3.515625 1.257812 -3.640625 1.15625 -3.796875 C 1.0625 -3.953125 1.015625 -4.148438 1.015625 -4.390625 C 1.015625 -4.816406 1.125 -5.1875 1.34375 -5.5 C 1.5625 -5.820312 1.851562 -6.066406 2.21875 -6.234375 C 2.59375 -6.410156 3.003906 -6.5 3.453125 -6.5 C 3.816406 -6.5 4.148438 -6.4375 4.453125 -6.3125 C 4.753906 -6.1875 4.992188 -5.988281 5.171875 -5.71875 C 5.359375 -5.445312 5.453125 -5.09375 5.453125 -4.65625 L 4.703125 -4.65625 C 4.691406 -4.9375 4.617188 -5.160156 4.484375 -5.328125 C 4.359375 -5.503906 4.191406 -5.628906 3.984375 -5.703125 C 3.773438 -5.773438 3.554688 -5.8125 3.328125 -5.8125 C 2.890625 -5.8125 2.523438 -5.703125 2.234375 -5.484375 C 1.953125 -5.273438 1.8125 -4.988281 1.8125 -4.625 C 1.8125 -4.414062 1.878906 -4.25 2.015625 -4.125 C 2.148438 -4.007812 2.328125 -3.914062 2.546875 -3.84375 C 2.773438 -3.78125 3.015625 -3.722656 3.265625 -3.671875 C 3.492188 -3.617188 3.71875 -3.554688 3.9375 -3.484375 C 4.164062 -3.421875 4.367188 -3.335938 4.546875 -3.234375 C 4.734375 -3.128906 4.882812 -2.988281 5 -2.8125 C 5.113281 -2.644531 5.171875 -2.425781 5.171875 -2.15625 C 5.171875 -1.695312 5.054688 -1.296875 4.828125 -0.953125 C 4.597656 -0.617188 4.285156 -0.363281 3.890625 -0.1875 C 3.503906 -0.0078125 3.0625 0.078125 2.5625 0.078125 Z M 2.5625 0.078125 "/></g></g></g><g fill="#d91e26" fill-opacity="1"><g transform="translate(263.967697, 204.178724)"><g/></g></g><g fill="#d91e26" fill-opacity="1"><g transform="translate(269.754491, 204.178724)"><g><path d="M 4.390625 0 L 0.25 0 L 1.390625 -6.40625 L 5.53125 -6.40625 L 5.40625 -5.71875 L 2.03125 -5.71875 L 1.65625 -3.5625 L 4.625 -3.5625 L 4.515625 -2.875 L 1.53125 -2.875 L 1.15625 -0.703125 L 4.515625 -0.703125 Z M 4.390625 0 "/></g></g></g><g fill="#d91e26" fill-opacity="1"><g transform="translate(278.3633, 204.178724)"><g><path d="M 1.03125 0 L 0.25 0 L 1.390625 -6.40625 L 2.734375 -6.40625 L 3.484375 -0.953125 L 6.171875 -6.40625 L 7.609375 -6.40625 L 6.484375 0 L 5.703125 0 L 6.765625 -5.953125 L 3.75 0 L 2.984375 0 L 2.0625 -5.90625 Z M 1.03125 0 "/></g></g></g><g fill="#d91e26" fill-opacity="1"><g transform="translate(168.579157, 215.377115)"><g><path d="M 5.515625 -5.015625 C 5.515625 -4.484375 5.378906 -4.023438 5.109375 -3.640625 C 4.835938 -3.265625 4.476562 -3 4.03125 -2.84375 L 4.765625 0 L 3.96875 0 L 3.296875 -2.71875 C 3.265625 -2.707031 3.234375 -2.703125 3.203125 -2.703125 C 3.171875 -2.703125 3.144531 -2.703125 3.125 -2.703125 L 1.5 -2.703125 L 1.03125 0 L 0.25 0 L 1.390625 -6.40625 L 3.78125 -6.40625 C 4.3125 -6.40625 4.734375 -6.289062 5.046875 -6.0625 C 5.359375 -5.832031 5.515625 -5.484375 5.515625 -5.015625 Z M 1.625 -3.390625 L 3.046875 -3.390625 C 3.367188 -3.390625 3.65625 -3.445312 3.90625 -3.5625 C 4.164062 -3.675781 4.367188 -3.835938 4.515625 -4.046875 C 4.660156 -4.265625 4.734375 -4.515625 4.734375 -4.796875 C 4.734375 -5.097656 4.628906 -5.328125 4.421875 -5.484375 C 4.222656 -5.640625 3.929688 -5.71875 3.546875 -5.71875 L 2.03125 -5.71875 Z M 1.625 -3.390625 "/></g></g></g><g fill="#d91e26" fill-opacity="1"><g transform="translate(177.55751, 215.377115)"><g><path d="M 4.390625 0 L 0.25 0 L 1.390625 -6.40625 L 5.53125 -6.40625 L 5.40625 -5.71875 L 2.03125 -5.71875 L 1.65625 -3.5625 L 4.625 -3.5625 L 4.515625 -2.875 L 1.53125 -2.875 L 1.15625 -0.703125 L 4.515625 -0.703125 Z M 4.390625 0 "/></g></g></g><g fill="#d91e26" fill-opacity="1"><g transform="translate(186.166315, 215.377115)"><g><path d="M 1.03125 0 L 0.25 0 L 1.390625 -6.40625 L 5.53125 -6.40625 L 5.40625 -5.71875 L 2.03125 -5.71875 L 1.65625 -3.5625 L 4.625 -3.5625 L 4.515625 -2.875 L 1.53125 -2.875 Z M 1.03125 0 "/></g></g></g><g fill="#d91e26" fill-opacity="1"><g transform="translate(194.649132, 215.377115)"><g><path d="M 5.515625 -5.015625 C 5.515625 -4.484375 5.378906 -4.023438 5.109375 -3.640625 C 4.835938 -3.265625 4.476562 -3 4.03125 -2.84375 L 4.765625 0 L 3.96875 0 L 3.296875 -2.71875 C 3.265625 -2.707031 3.234375 -2.703125 3.203125 -2.703125 C 3.171875 -2.703125 3.144531 -2.703125 3.125 -2.703125 L 1.5 -2.703125 L 1.03125 0 L 0.25 0 L 1.390625 -6.40625 L 3.78125 -6.40625 C 4.3125 -6.40625 4.734375 -6.289062 5.046875 -6.0625 C 5.359375 -5.832031 5.515625 -5.484375 5.515625 -5.015625 Z M 1.625 -3.390625 L 3.046875 -3.390625 C 3.367188 -3.390625 3.65625 -3.445312 3.90625 -3.5625 C 4.164062 -3.675781 4.367188 -3.835938 4.515625 -4.046875 C 4.660156 -4.265625 4.734375 -4.515625 4.734375 -4.796875 C 4.734375 -5.097656 4.628906 -5.328125 4.421875 -5.484375 C 4.222656 -5.640625 3.929688 -5.71875 3.546875 -5.71875 L 2.03125 -5.71875 Z M 1.625 -3.390625 "/></g></g></g><g fill="#d91e26" fill-opacity="1"><g transform="translate(203.627485, 215.377115)"><g><path d="M 1.03125 0 L 0.25 0 L 1.390625 -6.40625 L 2.15625 -6.40625 Z M 1.03125 0 "/></g></g></g><g fill="#d91e26" fill-opacity="1"><g transform="translate(209.170707, 215.377115)"><g><path d="M 3.015625 0.078125 C 2.421875 0.078125 1.9375 -0.0351562 1.5625 -0.265625 C 1.195312 -0.492188 0.925781 -0.800781 0.75 -1.1875 C 0.582031 -1.570312 0.5 -1.992188 0.5 -2.453125 C 0.5 -3.003906 0.585938 -3.519531 0.765625 -4 C 0.953125 -4.488281 1.207031 -4.921875 1.53125 -5.296875 C 1.863281 -5.671875 2.253906 -5.960938 2.703125 -6.171875 C 3.148438 -6.390625 3.640625 -6.5 4.171875 -6.5 C 4.890625 -6.5 5.445312 -6.328125 5.84375 -5.984375 C 6.238281 -5.640625 6.476562 -5.195312 6.5625 -4.65625 L 5.6875 -4.65625 C 5.601562 -5 5.421875 -5.273438 5.140625 -5.484375 C 4.867188 -5.703125 4.5 -5.8125 4.03125 -5.8125 C 3.613281 -5.8125 3.238281 -5.722656 2.90625 -5.546875 C 2.570312 -5.367188 2.285156 -5.128906 2.046875 -4.828125 C 1.804688 -4.535156 1.617188 -4.195312 1.484375 -3.8125 C 1.359375 -3.425781 1.296875 -3.019531 1.296875 -2.59375 C 1.296875 -2.21875 1.359375 -1.878906 1.484375 -1.578125 C 1.617188 -1.285156 1.820312 -1.050781 2.09375 -0.875 C 2.363281 -0.695312 2.710938 -0.609375 3.140625 -0.609375 C 3.554688 -0.609375 3.929688 -0.6875 4.265625 -0.84375 C 4.609375 -1.007812 4.890625 -1.25 5.109375 -1.5625 C 5.335938 -1.875 5.488281 -2.242188 5.5625 -2.671875 L 4.015625 -2.671875 L 4.140625 -3.359375 L 6.4375 -3.359375 L 5.84375 0 L 5.140625 0 L 5.296875 -0.921875 C 5.003906 -0.578125 4.648438 -0.320312 4.234375 -0.15625 C 3.828125 0 3.421875 0.078125 3.015625 0.078125 Z M 3.015625 0.078125 "/></g></g></g><g fill="#d91e26" fill-opacity="1"><g transform="translate(219.383685, 215.377115)"><g><path d="M 4.390625 0 L 0.25 0 L 1.390625 -6.40625 L 5.53125 -6.40625 L 5.40625 -5.71875 L 2.03125 -5.71875 L 1.65625 -3.5625 L 4.625 -3.5625 L 4.515625 -2.875 L 1.53125 -2.875 L 1.15625 -0.703125 L 4.515625 -0.703125 Z M 4.390625 0 "/></g></g></g><g fill="#d91e26" fill-opacity="1"><g transform="translate(227.992488, 215.377115)"><g><path d="M 5.515625 -5.015625 C 5.515625 -4.484375 5.378906 -4.023438 5.109375 -3.640625 C 4.835938 -3.265625 4.476562 -3 4.03125 -2.84375 L 4.765625 0 L 3.96875 0 L 3.296875 -2.71875 C 3.265625 -2.707031 3.234375 -2.703125 3.203125 -2.703125 C 3.171875 -2.703125 3.144531 -2.703125 3.125 -2.703125 L 1.5 -2.703125 L 1.03125 0 L 0.25 0 L 1.390625 -6.40625 L 3.78125 -6.40625 C 4.3125 -6.40625 4.734375 -6.289062 5.046875 -6.0625 C 5.359375 -5.832031 5.515625 -5.484375 5.515625 -5.015625 Z M 1.625 -3.390625 L 3.046875 -3.390625 C 3.367188 -3.390625 3.65625 -3.445312 3.90625 -3.5625 C 4.164062 -3.675781 4.367188 -3.835938 4.515625 -4.046875 C 4.660156 -4.265625 4.734375 -4.515625 4.734375 -4.796875 C 4.734375 -5.097656 4.628906 -5.328125 4.421875 -5.484375 C 4.222656 -5.640625 3.929688 -5.71875 3.546875 -5.71875 L 2.03125 -5.71875 Z M 1.625 -3.390625 "/></g></g></g><g fill="#d91e26" fill-opacity="1"><g transform="translate(236.970838, 215.377115)"><g><path d="M 5.296875 0 L 4.5625 0 L 4.28125 -1.578125 L 1.375 -1.578125 L 0.53125 0 L -0.296875 0 L 3.203125 -6.40625 L 4.078125 -6.40625 Z M 3.53125 -5.625 L 1.734375 -2.265625 L 4.15625 -2.265625 Z M 3.53125 -5.625 "/></g></g></g><g fill="#d91e26" fill-opacity="1"><g transform="translate(246.234751, 215.377115)"><g><path d="M 3.0625 -0.609375 C 3.519531 -0.609375 3.921875 -0.71875 4.265625 -0.9375 C 4.617188 -1.164062 4.875 -1.5 5.03125 -1.9375 L 5.875 -1.9375 C 5.664062 -1.320312 5.304688 -0.832031 4.796875 -0.46875 C 4.285156 -0.101562 3.671875 0.078125 2.953125 0.078125 L 2.828125 0.078125 C 2.765625 0.128906 2.695312 0.179688 2.625 0.234375 C 2.550781 0.296875 2.46875 0.359375 2.375 0.421875 L 2.421875 0.5 C 2.554688 0.476562 2.664062 0.46875 2.75 0.46875 C 2.925781 0.46875 3.085938 0.507812 3.234375 0.59375 C 3.378906 0.6875 3.453125 0.828125 3.453125 1.015625 C 3.453125 1.191406 3.394531 1.34375 3.28125 1.46875 C 3.175781 1.59375 3.035156 1.6875 2.859375 1.75 C 2.679688 1.8125 2.488281 1.84375 2.28125 1.84375 C 2.175781 1.84375 2.054688 1.832031 1.921875 1.8125 C 1.796875 1.800781 1.664062 1.773438 1.53125 1.734375 L 1.578125 1.421875 C 1.722656 1.484375 1.851562 1.523438 1.96875 1.546875 C 2.09375 1.566406 2.203125 1.578125 2.296875 1.578125 C 2.503906 1.578125 2.671875 1.53125 2.796875 1.4375 C 2.929688 1.351562 3 1.226562 3 1.0625 C 3 0.882812 2.894531 0.765625 2.6875 0.703125 C 2.476562 0.648438 2.203125 0.628906 1.859375 0.640625 L 2.421875 0.046875 C 1.972656 -0.0234375 1.609375 -0.175781 1.328125 -0.40625 C 1.046875 -0.632812 0.835938 -0.921875 0.703125 -1.265625 C 0.566406 -1.617188 0.5 -2 0.5 -2.40625 C 0.5 -2.96875 0.585938 -3.492188 0.765625 -3.984375 C 0.941406 -4.472656 1.1875 -4.90625 1.5 -5.28125 C 1.820312 -5.65625 2.203125 -5.953125 2.640625 -6.171875 C 3.085938 -6.390625 3.582031 -6.5 4.125 -6.5 C 4.59375 -6.5 4.992188 -6.421875 5.328125 -6.265625 C 5.660156 -6.109375 5.914062 -5.890625 6.09375 -5.609375 C 6.269531 -5.328125 6.359375 -5.003906 6.359375 -4.640625 L 5.515625 -4.640625 C 5.492188 -4.992188 5.347656 -5.273438 5.078125 -5.484375 C 4.804688 -5.703125 4.4375 -5.8125 3.96875 -5.8125 C 3.550781 -5.8125 3.175781 -5.71875 2.84375 -5.53125 C 2.519531 -5.351562 2.238281 -5.109375 2 -4.796875 C 1.769531 -4.492188 1.59375 -4.144531 1.46875 -3.75 C 1.34375 -3.351562 1.28125 -2.9375 1.28125 -2.5 C 1.28125 -1.945312 1.425781 -1.492188 1.71875 -1.140625 C 2.019531 -0.785156 2.46875 -0.609375 3.0625 -0.609375 Z M 3.0625 -0.609375 "/></g></g></g><g fill="#d91e26" fill-opacity="1"><g transform="translate(255.952195, 215.377115)"><g><path d="M 3.25 -7.609375 C 3.039062 -7.609375 2.882812 -7.390625 2.78125 -6.953125 L 2.203125 -6.953125 C 2.296875 -7.347656 2.445312 -7.65625 2.65625 -7.875 C 2.863281 -8.101562 3.109375 -8.21875 3.390625 -8.21875 C 3.546875 -8.21875 3.671875 -8.179688 3.765625 -8.109375 C 3.867188 -8.046875 3.953125 -7.96875 4.015625 -7.875 C 4.078125 -7.78125 4.140625 -7.695312 4.203125 -7.625 C 4.265625 -7.5625 4.34375 -7.53125 4.4375 -7.53125 C 4.519531 -7.53125 4.597656 -7.582031 4.671875 -7.6875 C 4.742188 -7.789062 4.804688 -7.953125 4.859375 -8.171875 L 5.453125 -8.171875 C 5.347656 -7.753906 5.207031 -7.441406 5.03125 -7.234375 C 4.851562 -7.023438 4.613281 -6.921875 4.3125 -6.921875 C 4.132812 -6.921875 3.992188 -6.953125 3.890625 -7.015625 C 3.785156 -7.085938 3.703125 -7.164062 3.640625 -7.25 C 3.585938 -7.34375 3.53125 -7.425781 3.46875 -7.5 C 3.414062 -7.570312 3.34375 -7.609375 3.25 -7.609375 Z M -0.296875 0 L 3.203125 -6.40625 L 4.078125 -6.40625 L 5.296875 0 L 4.5625 0 L 4.28125 -1.578125 L 1.375 -1.578125 L 0.53125 0 Z M 3.53125 -5.625 L 1.734375 -2.265625 L 4.15625 -2.265625 Z M 3.53125 -5.625 "/></g></g></g><g fill="#d91e26" fill-opacity="1"><g transform="translate(265.216113, 215.377115)"><g><path d="M 2.96875 0.078125 C 2.394531 0.078125 1.925781 -0.03125 1.5625 -0.25 C 1.207031 -0.476562 0.941406 -0.78125 0.765625 -1.15625 C 0.585938 -1.539062 0.5 -1.960938 0.5 -2.421875 C 0.5 -2.984375 0.585938 -3.507812 0.765625 -4 C 0.941406 -4.488281 1.191406 -4.921875 1.515625 -5.296875 C 1.835938 -5.671875 2.21875 -5.960938 2.65625 -6.171875 C 3.101562 -6.390625 3.597656 -6.5 4.140625 -6.5 C 4.710938 -6.5 5.179688 -6.382812 5.546875 -6.15625 C 5.910156 -5.9375 6.175781 -5.632812 6.34375 -5.25 C 6.519531 -4.875 6.609375 -4.445312 6.609375 -3.96875 C 6.609375 -3.425781 6.519531 -2.910156 6.34375 -2.421875 C 6.175781 -1.929688 5.925781 -1.5 5.59375 -1.125 C 5.269531 -0.75 4.882812 -0.453125 4.4375 -0.234375 C 4 -0.0234375 3.507812 0.078125 2.96875 0.078125 Z M 3.09375 -0.609375 C 3.507812 -0.609375 3.882812 -0.695312 4.21875 -0.875 C 4.5625 -1.050781 4.851562 -1.289062 5.09375 -1.59375 C 5.332031 -1.90625 5.515625 -2.253906 5.640625 -2.640625 C 5.765625 -3.035156 5.828125 -3.445312 5.828125 -3.875 C 5.828125 -4.445312 5.675781 -4.910156 5.375 -5.265625 C 5.070312 -5.617188 4.617188 -5.796875 4.015625 -5.796875 C 3.585938 -5.796875 3.207031 -5.707031 2.875 -5.53125 C 2.539062 -5.351562 2.253906 -5.113281 2.015625 -4.8125 C 1.785156 -4.507812 1.601562 -4.160156 1.46875 -3.765625 C 1.34375 -3.367188 1.28125 -2.957031 1.28125 -2.53125 C 1.28125 -1.957031 1.429688 -1.492188 1.734375 -1.140625 C 2.046875 -0.785156 2.5 -0.609375 3.09375 -0.609375 Z M 3.09375 -0.609375 "/></g></g></g></svg>